<?xml version="1.0" standalone="no"?>
<!DOCTYPE svg PUBLIC "-//W3C//DTD SVG 20010904//EN"
 "http://www.w3.org/TR/2001/REC-SVG-20010904/DTD/svg10.dtd">
<svg version="1.0" xmlns="http://www.w3.org/2000/svg"
 width="1024.000000pt" height="1024.000000pt" viewBox="0 0 1024.000000 1024.000000"
 preserveAspectRatio="xMidYMid meet">
<metadata>
Created by potrace 1.14, written by Peter Selinger 2001-2017
</metadata>
<g transform="translate(0.000000,1024.000000) scale(0.100000,-0.100000)"
fill="#000000" stroke="none">
<path d="M4977 10034 c-1 -1 -58 -5 -127 -8 -69 -4 -141 -8 -160 -10 -160 -14
-196 -18 -200 -21 -3 -2 -34 -6 -70 -10 -35 -3 -67 -8 -70 -10 -3 -1 -27 -6
-55 -9 -27 -4 -70 -12 -95 -17 -25 -6 -55 -13 -68 -15 -53 -9 -122 -24 -167
-36 -22 -5 -47 -11 -55 -13 -31 -7 -177 -47 -220 -62 -25 -8 -56 -17 -70 -20
-13 -2 -29 -8 -35 -12 -8 -7 -108 -40 -140 -47 -13 -3 -83 -32 -257 -106 -76
-32 -142 -58 -147 -58 -5 0 -11 -3 -13 -7 -1 -5 -46 -28 -98 -53 -52 -25 -97
-47 -100 -50 -3 -3 -27 -16 -55 -30 -27 -14 -53 -29 -56 -33 -3 -5 -8 -8 -10
-6 -4 2 -40 -18 -104 -58 -11 -7 -45 -27 -75 -45 -30 -17 -57 -35 -60 -38 -3
-4 -33 -24 -67 -45 -35 -21 -63 -42 -63 -48 0 -6 -3 -8 -6 -4 -3 3 -11 1 -18
-4 -6 -5 -51 -39 -101 -75 -49 -36 -110 -82 -134 -102 -24 -20 -50 -41 -58
-46 -9 -4 -23 -16 -32 -25 -10 -9 -44 -38 -76 -66 -133 -113 -316 -292 -446
-436 -41 -45 -89 -98 -106 -118 -18 -20 -33 -39 -33 -43 0 -4 -8 -15 -18 -25
-24 -24 -114 -139 -182 -233 -29 -41 -58 -78 -64 -82 -6 -4 -8 -8 -4 -8 5 0
-15 -32 -42 -70 -28 -39 -50 -72 -50 -74 0 -2 -29 -50 -65 -107 -36 -57 -65
-107 -65 -112 0 -4 -11 -24 -24 -45 -13 -21 -54 -99 -91 -173 -36 -74 -75
-151 -86 -172 -10 -22 -19 -45 -19 -53 0 -8 -5 -14 -11 -14 -5 0 -8 -4 -5 -8
3 -5 -3 -24 -13 -43 -10 -19 -37 -86 -60 -149 -24 -63 -47 -127 -53 -142 -5
-15 -10 -30 -9 -33 1 -3 -5 -18 -14 -35 -8 -16 -15 -38 -15 -50 0 -11 -4 -20
-8 -20 -4 0 -8 -9 -9 -21 -1 -11 -11 -48 -22 -82 -18 -57 -64 -231 -75 -288
-2 -13 -12 -58 -21 -99 -9 -41 -18 -91 -21 -110 -3 -19 -10 -54 -15 -78 -5
-24 -7 -48 -4 -53 4 -5 2 -9 -2 -9 -5 0 -9 -15 -10 -32 0 -18 -3 -53 -7 -78
-29 -217 -38 -366 -39 -625 0 -115 3 -248 6 -295 19 -252 21 -271 36 -360 5
-30 7 -58 5 -62 -2 -4 0 -9 6 -13 6 -4 8 -11 5 -16 -4 -5 1 -46 9 -92 20 -104
24 -126 31 -157 3 -14 8 -36 11 -50 3 -14 7 -36 10 -50 15 -74 99 -381 114
-415 5 -11 18 -51 31 -90 28 -91 102 -280 145 -373 19 -41 34 -76 34 -79 0 -9
141 -285 166 -324 13 -21 21 -39 17 -39 -5 0 -3 -4 2 -8 6 -4 24 -29 39 -57
49 -86 179 -289 198 -309 10 -11 18 -25 18 -32 0 -7 3 -14 8 -16 4 -1 40 -48
81 -103 74 -99 190 -245 220 -277 9 -9 45 -49 81 -89 115 -128 350 -357 450
-438 14 -11 32 -27 40 -34 8 -8 58 -47 110 -88 52 -41 97 -77 98 -81 2 -5 10
-8 17 -8 7 0 15 -4 17 -8 2 -4 39 -33 83 -63 44 -29 84 -58 90 -62 9 -7 54
-37 94 -62 9 -5 46 -28 81 -51 36 -22 90 -54 120 -71 30 -17 82 -45 115 -63
172 -96 644 -304 680 -301 2 0 25 -8 50 -19 25 -11 46 -19 48 -18 1 1 31 -8
67 -19 53 -17 96 -30 160 -48 3 -1 25 -7 50 -14 25 -7 52 -14 60 -16 8 -2 41
-10 72 -18 31 -8 59 -12 62 -9 3 3 6 1 6 -4 0 -5 10 -10 23 -11 12 0 33 -3 47
-6 129 -26 372 -64 470 -73 77 -7 121 -13 130 -19 5 -3 11 -1 15 5 4 6 13 7
23 2 44 -22 563 -20 802 3 30 3 80 7 110 10 30 3 71 7 90 11 19 3 48 7 65 9
16 2 30 4 30 5 0 1 12 3 26 5 58 8 107 16 179 31 41 9 86 17 100 19 14 2 25 4
25 5 0 1 9 3 20 5 17 4 89 21 165 40 8 2 15 4 15 5 0 2 20 7 60 15 36 8 395
127 447 149 21 9 41 17 45 18 5 0 36 14 70 29 34 15 64 25 67 22 3 -4 6 -1 6
5 0 7 4 12 9 12 5 0 35 12 67 26 33 14 61 26 64 26 3 0 23 10 45 23 22 12 99
53 170 90 72 37 132 70 135 74 3 3 22 15 43 26 70 36 416 266 448 297 8 8 30
25 49 38 19 13 41 30 48 37 8 7 30 26 50 41 21 15 39 29 42 32 3 3 21 18 40
34 145 118 409 380 552 547 37 43 51 61 106 127 15 19 39 48 53 65 22 28 193
266 220 307 5 8 25 39 44 68 19 30 35 55 35 57 0 2 12 21 26 42 14 21 30 47
35 58 5 11 15 29 21 40 39 60 62 102 64 113 1 8 9 21 16 30 8 10 27 44 43 77
86 182 125 265 125 269 0 2 12 30 27 62 14 33 27 64 29 69 1 6 18 51 37 100
44 115 128 373 143 440 1 6 10 39 19 75 18 69 26 103 30 135 2 11 4 20 5 20 5
0 57 288 65 360 4 33 9 69 11 80 3 11 7 47 10 80 3 33 7 76 9 95 23 189 23
766 1 877 -3 12 -7 57 -11 100 -3 43 -8 85 -10 93 -2 8 -7 38 -10 65 -11 81
-14 98 -20 135 -6 34 -28 146 -40 205 -4 17 -8 39 -10 50 -8 52 -99 383 -115
420 -5 11 -14 38 -20 60 -6 22 -14 47 -17 55 -4 8 -7 17 -8 20 -1 3 -5 14 -10
25 -36 93 -55 144 -55 148 0 6 -123 286 -148 337 -9 19 -23 43 -31 53 -8 9
-11 17 -8 17 4 0 -2 15 -13 33 -10 17 -29 52 -41 77 -13 25 -34 63 -48 85 -14
22 -24 43 -23 47 1 3 -5 12 -13 18 -8 7 -15 19 -15 26 0 8 -4 14 -10 14 -5 0
-10 5 -10 11 0 6 -13 30 -30 54 -16 24 -30 48 -30 54 0 6 -4 11 -8 11 -5 0
-15 12 -23 28 -7 15 -26 43 -41 63 -15 20 -28 42 -28 48 0 7 -7 14 -15 17 -8
4 -15 10 -15 15 0 13 -179 251 -251 334 -181 208 -337 368 -492 507 -45 40
-88 79 -95 86 -8 7 -30 25 -50 40 -21 15 -42 32 -48 37 -12 11 -59 48 -119 94
-22 17 -49 38 -60 47 -38 30 -360 241 -405 265 -25 13 -47 26 -50 29 -15 15
-292 160 -317 166 -12 3 -27 12 -34 20 -6 8 -17 14 -23 14 -6 0 -31 10 -56 21
-25 11 -46 20 -47 20 -2 0 -33 14 -70 30 -36 17 -103 44 -147 61 -94 34 -276
99 -291 102 -5 1 -37 11 -70 21 -33 10 -67 19 -75 21 -8 1 -58 14 -110 28 -52
14 -108 28 -125 31 -37 8 -41 9 -196 38 -70 14 -132 28 -138 31 -6 4 -11 2
-11 -4 0 -6 -5 -8 -11 -4 -7 4 -26 9 -43 10 -17 2 -47 6 -66 9 -19 3 -57 8
-85 11 -27 3 -70 7 -95 10 -107 11 -574 26 -583 18z m483 -748 c25 -2 45 -5
45 -6 0 -1 20 -3 45 -5 25 -2 61 -6 80 -8 19 -3 58 -8 85 -12 28 -3 61 -8 75
-12 14 -3 41 -7 60 -9 19 -1 35 -3 35 -5 0 -1 9 -3 20 -4 11 -2 63 -13 115
-25 136 -31 120 -27 225 -55 59 -16 226 -70 255 -82 8 -3 17 -7 20 -7 37 -7
304 -119 312 -131 4 -5 8 -7 8 -2 0 7 244 -114 340 -169 68 -39 244 -147 250
-154 3 -3 34 -25 70 -49 99 -67 200 -145 200 -153 0 -5 6 -8 13 -8 6 0 33 -20
58 -43 26 -23 66 -58 90 -77 59 -47 352 -340 414 -414 96 -113 98 -115 145
-176 19 -25 38 -46 42 -48 5 -2 8 -9 8 -17 0 -7 6 -18 13 -24 27 -21 132 -180
240 -361 56 -94 230 -428 228 -438 -1 -1 6 -19 15 -40 19 -45 59 -148 86 -222
12 -30 24 -64 28 -75 30 -79 114 -394 134 -501 6 -32 18 -96 21 -119 2 -11 6
-35 9 -52 59 -325 68 -828 21 -1183 -10 -75 -16 -114 -20 -140 -3 -14 -7 -41
-10 -60 -3 -19 -8 -42 -11 -51 -2 -9 -7 -33 -9 -53 -4 -31 -13 -74 -31 -151
-11 -43 -13 -50 -14 -50 -1 0 -3 -7 -5 -15 -2 -12 -21 -83 -39 -145 -2 -9 -28
-93 -31 -105 -1 -3 -5 -13 -9 -22 -4 -9 -9 -22 -10 -30 -2 -7 -7 -22 -11 -33
-18 -45 -64 -171 -70 -192 -3 -13 -11 -23 -17 -23 -6 0 -9 -3 -6 -6 4 -3 -1
-22 -9 -42 -25 -60 -83 -184 -106 -227 -11 -22 -36 -69 -55 -105 -39 -76 -30
-61 -128 -220 -42 -69 -81 -128 -87 -132 -7 -4 -8 -8 -4 -8 9 0 -43 -73 -55
-78 -5 -2 -8 -9 -8 -14 0 -6 -7 -18 -15 -27 -9 -9 -41 -50 -72 -91 -30 -41
-58 -77 -62 -80 -4 -3 -17 -18 -29 -34 -72 -94 -428 -466 -445 -466 -3 0 -17
-10 -29 -23 -24 -23 -85 -75 -135 -115 -15 -12 -80 -61 -143 -107 -63 -47
-120 -89 -125 -93 -6 -5 -33 -21 -60 -37 -28 -16 -52 -32 -55 -35 -3 -4 -21
-15 -40 -26 -19 -10 -37 -22 -40 -25 -3 -3 -12 -8 -20 -12 -8 -4 -37 -20 -65
-37 -132 -81 -618 -302 -685 -312 -3 0 -34 -12 -70 -25 -36 -14 -67 -25 -70
-25 -3 0 -9 -2 -15 -4 -27 -8 -202 -56 -220 -60 -11 -2 -60 -13 -110 -24 -49
-12 -104 -23 -122 -24 -17 -2 -35 -6 -40 -9 -4 -3 -33 -8 -63 -11 -30 -4 -67
-9 -82 -12 -15 -3 -49 -8 -75 -10 -27 -3 -61 -7 -78 -10 -90 -14 -695 -26
-695 -14 0 3 -26 6 -58 7 -88 3 -204 15 -272 28 -14 2 -43 7 -65 10 -23 3 -52
8 -65 11 -14 3 -32 6 -40 6 -12 1 -259 56 -320 72 -13 3 -95 27 -110 31 -3 1
-18 5 -35 10 -16 4 -36 12 -42 18 -7 5 -13 7 -13 3 0 -3 -24 4 -52 15 -29 11
-55 21 -58 21 -3 0 -15 4 -28 9 -13 5 -26 9 -29 9 -3 0 -19 6 -36 14 -18 8
-50 21 -72 29 -22 9 -57 23 -77 31 -21 9 -40 17 -43 17 -9 1 -302 149 -360
182 -33 19 -78 44 -100 57 -117 66 -457 306 -490 345 -5 6 -15 14 -21 16 -37
13 -397 361 -505 488 -29 35 -59 69 -64 75 -6 6 -24 29 -40 51 -17 22 -33 42
-36 45 -3 3 -40 52 -82 110 -42 58 -81 110 -87 117 -5 7 -10 14 -10 17 0 2
-22 38 -50 79 -28 41 -50 79 -50 85 0 6 -4 12 -8 14 -9 3 -81 127 -103 176 -7
17 -17 32 -21 32 -5 0 -8 4 -8 10 0 5 -27 63 -59 130 -33 66 -60 123 -60 125
0 3 -8 22 -17 43 -62 145 -169 453 -190 544 -4 18 -10 46 -19 83 -2 11 -11 48
-19 82 -9 34 -18 77 -21 95 -3 18 -8 40 -10 48 -3 8 -7 31 -10 50 -2 19 -7 46
-9 60 -6 26 -12 74 -22 150 -2 25 -7 61 -10 80 -17 123 -24 548 -11 725 9 136
29 316 42 385 3 14 7 41 11 60 7 44 12 65 14 65 1 0 3 9 4 20 1 11 6 38 11 60
4 22 9 46 11 54 11 57 28 118 35 127 5 6 7 13 4 16 -2 2 7 42 21 88 14 46 27
91 29 99 4 21 91 259 112 307 9 22 18 41 18 44 12 34 38 93 91 200 35 71 64
134 64 139 0 6 5 11 10 11 6 0 10 4 10 10 0 5 20 44 45 86 25 41 45 78 45 81
0 12 219 331 295 428 119 153 178 219 345 385 169 169 230 224 389 348 133
104 380 272 400 272 5 0 11 3 13 8 8 19 413 232 442 232 9 0 16 4 16 8 0 4 25
16 55 27 30 10 55 22 55 27 0 5 5 6 10 3 6 -4 16 -2 23 3 11 10 84 38 117 47
8 2 16 4 18 4 1 1 4 0 5 -1 2 -2 10 2 18 8 12 10 111 45 169 59 8 2 36 11 63
19 26 8 47 12 47 9 0 -3 6 -1 13 5 7 6 24 13 37 16 14 3 54 11 90 20 119 26
209 46 237 50 16 2 48 8 73 11 25 4 52 9 60 10 8 1 39 6 69 10 56 8 79 10 231
21 47 3 86 7 88 9 4 3 497 -5 552 -9z"/>
<path d="M5108 9059 c-47 -7 -75 -32 -84 -73 -4 -17 -7 -155 -7 -307 0 -249 2
-280 18 -307 41 -68 147 -57 177 18 9 23 15 565 7 599 -6 22 -41 61 -55 61 -7
0 -14 4 -16 8 -1 4 -20 5 -40 1z"/>
<path d="M3183 8552 c-12 -2 -33 -15 -47 -29 -24 -24 -30 -40 -29 -88 0 -11
56 -117 125 -235 69 -118 132 -230 142 -247 45 -88 178 -71 190 25 4 29 -33
101 -195 380 -45 77 -63 109 -76 133 -24 48 -62 69 -110 61z"/>
<path d="M6981 8524 c-17 -14 -29 -30 -26 -34 3 -5 2 -10 -3 -12 -4 -1 -68
-106 -141 -233 -140 -243 -150 -270 -114 -319 17 -24 56 -44 78 -41 56 8 88
42 145 155 12 25 25 47 29 50 3 3 17 28 31 55 13 28 27 52 30 55 5 5 13 18 62
108 58 105 66 127 62 160 -9 75 -94 106 -153 56z"/>
<path d="M1757 7136 c-49 -26 -60 -45 -59 -100 1 -34 20 -57 70 -82 20 -10 39
-21 42 -24 3 -3 68 -41 145 -85 77 -43 165 -94 195 -113 30 -19 60 -35 67 -36
7 -1 15 -5 18 -8 11 -10 75 12 96 33 24 24 28 85 8 117 -11 17 -137 98 -173
111 -6 2 -18 9 -26 16 -8 7 -35 23 -60 36 -25 13 -47 26 -50 29 -3 3 -21 14
-40 24 -19 10 -62 34 -95 53 -73 42 -102 48 -138 29z"/>
<path d="M8385 7126 c-206 -119 -306 -176 -348 -200 -113 -64 -157 -96 -163
-121 -9 -37 3 -74 35 -106 22 -22 36 -27 62 -24 21 2 122 54 265 137 127 74
239 138 248 141 9 4 24 20 35 37 50 83 -51 185 -134 136z"/>
<path d="M2605 6697 c-167 -57 -153 -252 26 -374 24 -17 64 -41 89 -55 25 -14
112 -64 193 -112 82 -47 153 -86 158 -86 5 0 9 -4 9 -10 0 -5 5 -10 11 -10 6
0 49 -23 97 -52 48 -28 112 -64 142 -81 30 -16 61 -34 68 -40 19 -15 95 -57
115 -64 9 -3 17 -9 17 -14 0 -5 4 -9 10 -9 5 0 33 -14 62 -31 29 -18 68 -40
86 -50 17 -11 47 -27 65 -38 17 -10 104 -60 192 -111 88 -51 175 -101 193
-111 18 -11 93 -54 165 -96 151 -87 239 -138 282 -163 21 -12 30 -25 32 -46 9
-139 25 -200 76 -286 57 -97 164 -180 277 -217 42 -13 190 -30 190 -21 0 3 12
6 28 6 104 2 245 83 334 192 9 11 14 22 12 25 -19 19 142 23 901 21 l850 -1
51 22 c88 39 146 154 137 270 -5 70 -53 163 -103 199 -43 32 -57 37 -107 39
-18 1 -33 6 -33 12 0 7 -3 7 -8 0 -10 -14 -704 -14 -714 0 -5 6 -8 7 -8 0 0
-14 -230 -14 -230 0 0 7 -3 7 -8 0 -4 -7 -136 -10 -367 -10 l-360 0 -19 25
c-18 23 -86 90 -119 116 -46 38 -166 82 -220 80 -20 -1 -37 1 -37 4 0 3 -12 5
-27 4 -16 -1 -28 -3 -28 -4 0 -1 -17 -3 -39 -5 -48 -5 -117 -31 -177 -66 l-46
-27 -54 30 c-30 17 -142 81 -249 143 -107 62 -217 125 -245 140 -27 15 -57 33
-65 39 -8 7 -26 18 -40 24 -14 7 -38 20 -55 31 -16 10 -48 28 -70 41 -132 74
-253 145 -275 160 -14 10 -27 18 -30 17 -3 0 -24 12 -47 26 -24 15 -45 27 -47
27 -3 0 -46 25 -97 55 -50 30 -93 55 -95 55 -3 0 -23 12 -47 27 -23 15 -53 33
-67 40 -14 7 -43 23 -65 37 -22 14 -51 31 -65 39 -14 7 -41 23 -60 34 -19 11
-84 48 -145 83 -60 34 -118 70 -129 79 -10 9 -20 15 -22 14 -2 -1 -25 7 -51
18 -54 23 -154 32 -198 16z"/>
<path d="M1295 5232 c-45 -2 -64 -8 -80 -25 -52 -55 -47 -117 13 -156 35 -23
38 -23 323 -23 316 0 323 1 352 60 20 39 11 83 -23 115 -27 24 -39 27 -98 28
-37 0 -148 1 -247 2 -99 1 -207 1 -240 -1z"/>
<path d="M8410 5220 c-19 -3 -43 -10 -52 -15 -26 -16 -46 -64 -42 -98 6 -40
55 -87 92 -88 150 -4 561 0 577 6 37 14 65 56 65 95 0 48 -44 100 -87 101
-153 3 -526 3 -553 -1z"/>
<path d="M2115 3508 c-66 -39 -145 -84 -175 -100 -30 -17 -59 -34 -65 -38 -5
-4 -26 -17 -46 -28 -72 -40 -83 -47 -105 -67 -12 -11 -23 -29 -24 -40 -6 -63
7 -87 61 -109 35 -14 39 -14 90 13 51 27 185 100 294 162 28 16 74 41 104 56
30 16 67 40 82 55 25 22 29 32 25 68 -5 53 -41 92 -88 95 -25 2 -61 -14 -153
-67z"/>
<path d="M7942 3559 c-93 -35 -86 -147 12 -198 23 -12 64 -35 91 -51 28 -17
59 -35 70 -40 11 -6 27 -14 35 -20 59 -40 245 -141 267 -145 34 -6 87 19 103
50 17 32 15 83 -4 104 -8 9 -32 25 -53 36 -21 11 -40 22 -43 25 -7 7 -43 29
-60 37 -8 3 -27 14 -41 24 -14 10 -29 16 -33 12 -3 -3 -6 -2 -6 3 0 6 -22 21
-50 35 -27 13 -50 27 -50 32 0 4 -5 7 -10 7 -6 0 -40 18 -76 40 -76 46 -121
60 -152 49z"/>
<path d="M3433 2372 c-25 -4 -73 -48 -73 -68 0 -8 -3 -14 -7 -14 -5 0 -13 -10
-19 -23 -6 -12 -28 -51 -49 -87 -20 -36 -46 -81 -57 -100 -11 -19 -47 -81 -79
-136 -61 -105 -67 -132 -39 -184 15 -29 68 -49 103 -39 29 8 77 45 77 59 0 4
32 63 71 131 39 68 87 153 107 189 19 36 44 78 55 93 29 42 33 105 8 143 -19
31 -50 43 -98 36z"/>
<path d="M6734 2360 c-35 -14 -63 -57 -59 -93 1 -19 43 -101 99 -196 53 -90
96 -165 96 -167 0 -2 18 -33 40 -69 22 -36 40 -69 40 -73 0 -16 45 -50 70 -53
35 -5 85 18 100 46 24 46 16 86 -40 180 -54 92 -76 130 -108 188 -11 17 -43
74 -72 125 -29 51 -62 98 -74 104 -28 16 -66 19 -92 8z"/>
<path d="M5093 1933 c-23 -4 -72 -56 -74 -76 -4 -78 0 -560 5 -585 9 -38 55
-72 98 -72 33 0 84 41 93 77 4 16 7 156 7 312 l-1 284 -28 27 c-29 29 -63 40
-100 33z"/>
</g>
</svg>
